<svg xmlns="http://www.w3.org/2000/svg" xmlns:xlink="http://www.w3.org/1999/xlink" width="500" zoomAndPan="magnify" viewBox="0 0 375 374.999991" height="500" preserveAspectRatio="xMidYMid meet" version="1.0"><defs><g/><clipPath id="ed09ac8f5b"><path d="M 2 0 L 372.613281 0 L 372.613281 369.726562 L 2 369.726562 Z M 2 0 " clip-rule="nonzero"/></clipPath><clipPath id="fb62663e4c"><path d="M 250.78125 11.132812 C 270.941406 18.5 289.671875 29.300781 306.144531 43.0625 L 306.152344 43.066406 C 322.625 56.824219 336.546875 73.378906 347.277344 91.96875 L 347.660156 92.628906 C 358.382812 111.199219 365.75 131.511719 369.433594 152.636719 C 373.117188 173.769531 373.132812 195.375 369.484375 216.511719 L 369.410156 216.9375 C 365.742188 238.15625 358.3125 258.546875 347.460938 277.148438 L 347.402344 277.246094 C 336.585938 295.789062 322.628906 312.3125 306.152344 326.074219 L 306.144531 326.078125 C 289.671875 339.839844 270.941406 350.640625 250.78125 358.007812 C 230.625 365.371094 209.332031 369.140625 187.875 369.140625 L 187.125 369.140625 C 165.667969 369.140625 144.375 365.371094 124.21875 358.007812 C 104.058594 350.640625 85.328125 339.839844 68.855469 326.078125 L 68.847656 326.074219 C 52.371094 312.3125 38.414062 295.789062 27.597656 277.246094 L 27.539062 277.148438 C 16.6875 258.546875 9.257812 238.15625 5.589844 216.9375 L 5.515625 216.511719 C 1.867188 195.375 1.882812 173.769531 5.566406 152.636719 C 9.25 131.511719 16.617188 111.199219 27.339844 92.628906 L 27.722656 91.96875 C 38.453125 73.378906 52.375 56.824219 68.847656 43.066406 L 68.855469 43.0625 C 85.328125 29.300781 104.058594 18.5 124.21875 11.132812 C 144.375 3.769531 165.667969 0 187.125 0 L 187.875 0 C 209.332031 0 230.625 3.769531 250.78125 11.132812 Z M 250.78125 11.132812 " clip-rule="nonzero"/></clipPath><clipPath id="30982eec08"><path d="M 0 0 L 370.613281 0 L 370.613281 369.359375 L 0 369.359375 Z M 0 0 " clip-rule="nonzero"/></clipPath><clipPath id="7c644a5b03"><path d="M 248.78125 11.132812 C 268.941406 18.5 287.671875 29.300781 304.144531 43.0625 L 304.152344 43.066406 C 320.625 56.824219 334.546875 73.378906 345.277344 91.96875 L 345.660156 92.628906 C 356.382812 111.199219 363.75 131.511719 367.433594 152.636719 C 371.117188 173.769531 371.132812 195.375 367.484375 216.511719 L 367.410156 216.9375 C 363.742188 238.15625 356.3125 258.546875 345.460938 277.148438 L 345.402344 277.246094 C 334.585938 295.789062 320.628906 312.3125 304.152344 326.074219 L 304.144531 326.078125 C 287.671875 339.839844 268.941406 350.640625 248.78125 358.007812 C 228.625 365.371094 207.332031 369.140625 185.875 369.140625 L 185.125 369.140625 C 163.667969 369.140625 142.375 365.371094 122.21875 358.007812 C 102.058594 350.640625 83.328125 339.839844 66.855469 326.078125 L 66.847656 326.074219 C 50.371094 312.3125 36.414062 295.789062 25.597656 277.246094 L 25.539062 277.148438 C 14.6875 258.546875 7.257812 238.15625 3.589844 216.9375 L 3.515625 216.511719 C -0.132812 195.375 -0.117188 173.769531 3.566406 152.636719 C 7.25 131.511719 14.617188 111.199219 25.339844 92.628906 L 25.722656 91.96875 C 36.453125 73.378906 50.375 56.824219 66.847656 43.066406 L 66.855469 43.0625 C 83.328125 29.300781 102.058594 18.5 122.21875 11.132812 C 142.375 3.769531 163.667969 0 185.125 0 L 185.875 0 C 207.332031 0 228.625 3.769531 248.78125 11.132812 Z M 248.78125 11.132812 " clip-rule="nonzero"/></clipPath><clipPath id="925b2e919f"><rect x="0" width="371" y="0" height="370"/></clipPath><clipPath id="16d200ca52"><path d="M 163.5 149.25 L 211.800781 149.25 L 211.800781 245.683594 L 163.5 245.683594 Z M 163.5 149.25 " clip-rule="nonzero"/></clipPath><clipPath id="0dc7b414ad"><path d="M 0.5 0.25 L 48.800781 0.25 L 48.800781 96.683594 L 0.5 96.683594 Z M 0.5 0.25 " clip-rule="nonzero"/></clipPath><clipPath id="f6ffd1084a"><rect x="0" width="49" y="0" height="97"/></clipPath><clipPath id="ef85317345"><path d="M 163.503906 149.230469 L 211.800781 149.230469 L 211.800781 204.886719 L 163.503906 204.886719 Z M 163.503906 149.230469 " clip-rule="nonzero"/></clipPath><clipPath id="79e14f2ca3"><path d="M 210.195312 186.332031 C 211.167969 183.476562 211.800781 180.234375 211.800781 177.050781 C 211.800781 173.867188 211.257812 170.804688 210.285156 167.984375 C 210.257812 167.921875 210.257812 167.863281 210.226562 167.804688 C 206.347656 157.203125 196.097656 149.394531 184.574219 149.246094 L 163.503906 149.246094 L 163.503906 204.886719 L 184.558594 204.886719 C 196.160156 204.738281 206.40625 197.050781 210.195312 186.332031 Z M 210.195312 186.332031 " clip-rule="nonzero"/></clipPath><clipPath id="0c77a78bf1"><path d="M 0.503906 0.230469 L 48.800781 0.230469 L 48.800781 55.886719 L 0.503906 55.886719 Z M 0.503906 0.230469 " clip-rule="nonzero"/></clipPath><clipPath id="d4db82be7f"><path d="M 47.195312 37.332031 C 48.167969 34.476562 48.800781 31.234375 48.800781 28.050781 C 48.800781 24.867188 48.257812 21.804688 47.285156 18.984375 C 47.257812 18.921875 47.257812 18.863281 47.226562 18.804688 C 43.347656 8.203125 33.097656 0.394531 21.574219 0.246094 L 0.503906 0.246094 L 0.503906 55.886719 L 21.558594 55.886719 C 33.160156 55.738281 43.40625 48.050781 47.195312 37.332031 Z M 47.195312 37.332031 " clip-rule="nonzero"/></clipPath><clipPath id="778958e73e"><rect x="0" width="49" y="0" height="56"/></clipPath><clipPath id="b962d793ef"><path d="M 171.222656 190.019531 L 219.519531 190.019531 L 219.519531 245.675781 L 171.222656 245.675781 Z M 171.222656 190.019531 " clip-rule="nonzero"/></clipPath><clipPath id="2944282102"><path d="M 217.914062 227.121094 C 218.886719 224.265625 219.519531 221.023438 219.519531 217.839844 C 219.519531 214.660156 218.976562 211.59375 218.003906 208.773438 C 217.976562 208.710938 217.976562 208.652344 217.945312 208.59375 C 214.066406 197.992188 203.816406 190.183594 192.292969 190.035156 L 171.222656 190.035156 L 171.222656 245.675781 L 192.277344 245.675781 C 203.878906 245.527344 214.125 237.839844 217.914062 227.121094 Z M 217.914062 227.121094 " clip-rule="nonzero"/></clipPath><clipPath id="ec924db26f"><path d="M 0.222656 0.0195312 L 48.519531 0.0195312 L 48.519531 55.675781 L 0.222656 55.675781 Z M 0.222656 0.0195312 " clip-rule="nonzero"/></clipPath><clipPath id="50c9fa075a"><path d="M 46.914062 37.121094 C 47.886719 34.265625 48.519531 31.023438 48.519531 27.839844 C 48.519531 24.660156 47.976562 21.59375 47.003906 18.773438 C 46.976562 18.710938 46.976562 18.652344 46.945312 18.59375 C 43.066406 7.992188 32.816406 0.183594 21.292969 0.0351562 L 0.222656 0.0351562 L 0.222656 55.675781 L 21.277344 55.675781 C 32.878906 55.527344 43.125 47.839844 46.914062 37.121094 Z M 46.914062 37.121094 " clip-rule="nonzero"/></clipPath><clipPath id="5c4bd24767"><rect x="0" width="49" y="0" height="56"/></clipPath><clipPath id="4ae5afe66e"><path d="M 163.496094 117.117188 L 215.628906 117.117188 L 215.628906 159.347656 L 163.496094 159.347656 Z M 163.496094 117.117188 " clip-rule="nonzero"/></clipPath><clipPath id="8cef2d6aee"><path d="M 214.257812 145.261719 C 214.992188 143.097656 215.476562 140.636719 215.476562 138.222656 C 215.476562 135.804688 215.0625 133.480469 214.324219 131.339844 C 214.300781 131.292969 214.300781 131.246094 214.28125 131.203125 C 211.335938 123.15625 203.558594 117.230469 194.46875 117.117188 L 163.496094 117.117188 L 163.496094 159.347656 L 194.445312 159.347656 C 203.601562 159.234375 211.378906 153.398438 214.257812 145.261719 Z M 214.257812 145.261719 " clip-rule="nonzero"/></clipPath><clipPath id="535291ca5e"><path d="M 0.496094 0.117188 L 52.519531 0.117188 L 52.519531 42.347656 L 0.496094 42.347656 Z M 0.496094 0.117188 " clip-rule="nonzero"/></clipPath><clipPath id="a53b63f9e9"><path d="M 51.257812 28.261719 C 51.992188 26.097656 52.476562 23.636719 52.476562 21.222656 C 52.476562 18.804688 52.0625 16.480469 51.324219 14.339844 C 51.300781 14.292969 51.300781 14.246094 51.28125 14.203125 C 48.335938 6.15625 40.558594 0.230469 31.46875 0.117188 L 0.496094 0.117188 L 0.496094 42.347656 L 31.445312 42.347656 C 40.601562 42.234375 48.378906 36.398438 51.257812 28.261719 Z M 51.257812 28.261719 " clip-rule="nonzero"/></clipPath><clipPath id="9ecd82372f"><rect x="0" width="53" y="0" height="43"/></clipPath><clipPath id="d831cb681c"><path d="M 199 175 L 324 175 L 324 259.097656 L 199 259.097656 Z M 199 175 " clip-rule="nonzero"/></clipPath><clipPath id="fd070debe4"><path d="M 51.003906 175 L 176 175 L 176 259.097656 L 51.003906 259.097656 Z M 51.003906 175 " clip-rule="nonzero"/></clipPath><clipPath id="7be2b84d84"><rect x="0" width="110" y="0" height="237"/></clipPath><clipPath id="8c7b756e54"><path d="M 183.8125 239.128906 L 191.1875 239.128906 L 191.1875 269.316406 L 183.8125 269.316406 Z M 183.8125 239.128906 " clip-rule="nonzero"/></clipPath><clipPath id="9d0e7b48a2"><path d="M 0.8125 0.128906 L 8.1875 0.128906 L 8.1875 30.316406 L 0.8125 30.316406 Z M 0.8125 0.128906 " clip-rule="nonzero"/></clipPath><clipPath id="c4e416dc53"><rect x="0" width="9" y="0" height="31"/></clipPath></defs><g clip-path="url(#ed09ac8f5b)"><g clip-path="url(#fb62663e4c)"><g transform="matrix(1, 0, 0, 1, 2, 0)"><g clip-path="url(#925b2e919f)"><g clip-path="url(#30982eec08)"><g clip-path="url(#7c644a5b03)"><path fill="#159d9d" d="M -2 0 L 373.503906 0 L 373.503906 369.726562 L -2 369.726562 Z M -2 0 " fill-opacity="1" fill-rule="nonzero"/></g></g></g></g></g></g><g clip-path="url(#16d200ca52)"><g transform="matrix(1, 0, 0, 1, 163, 149)"><g clip-path="url(#f6ffd1084a)"><g clip-path="url(#0dc7b414ad)"><path fill="#159d9d" d="M 0.5 0.25 L 48.800781 0.25 L 48.800781 96.660156 L 0.5 96.660156 Z M 0.5 0.25 " fill-opacity="1" fill-rule="nonzero"/></g></g></g></g><g clip-path="url(#ef85317345)"><g clip-path="url(#79e14f2ca3)"><g transform="matrix(1, 0, 0, 1, 163, 149)"><g clip-path="url(#778958e73e)"><g clip-path="url(#0c77a78bf1)"><g clip-path="url(#d4db82be7f)"><path fill="#ffffff" d="M 0.503906 55.886719 L 0.503906 0.230469 L 48.800781 0.230469 L 48.800781 55.886719 Z M 0.503906 55.886719 " fill-opacity="1" fill-rule="nonzero"/></g></g></g></g></g></g><g clip-path="url(#b962d793ef)"><g clip-path="url(#2944282102)"><g transform="matrix(1, 0, 0, 1, 171, 190)"><g clip-path="url(#5c4bd24767)"><g clip-path="url(#ec924db26f)"><g clip-path="url(#50c9fa075a)"><path fill="#ffffff" d="M 0.222656 55.675781 L 0.222656 0.0195312 L 48.519531 0.0195312 L 48.519531 55.675781 Z M 0.222656 55.675781 " fill-opacity="1" fill-rule="nonzero"/></g></g></g></g></g></g><g clip-path="url(#4ae5afe66e)"><g clip-path="url(#8cef2d6aee)"><g transform="matrix(1, 0, 0, 1, 163, 117)"><g clip-path="url(#9ecd82372f)"><g clip-path="url(#535291ca5e)"><g clip-path="url(#a53b63f9e9)"><path fill="#ffffff" d="M 0.496094 42.347656 L 0.496094 0.117188 L 52.464844 0.117188 L 52.464844 42.347656 Z M 0.496094 42.347656 " fill-opacity="1" fill-rule="nonzero"/></g></g></g></g></g></g><path fill="#ffffff" d="M 278.222656 226.761719 L 255.453125 149.25 C 216.160156 143.058594 195.25 164.949219 191.152344 169.824219 L 191.152344 252.601562 C 216.664062 227.410156 245.738281 217.773438 278.21875 226.761719 Z M 278.222656 226.761719 " fill-opacity="1" fill-rule="nonzero"/><g clip-path="url(#d831cb681c)"><path fill="#ffffff" d="M 296.988281 175.089844 L 288.652344 175.089844 L 312.589844 248.066406 C 313.433594 250.554688 311.171875 253.265625 308.542969 252.84375 C 307.714844 252.699219 232.882812 241.535156 199.246094 259.328125 L 323.851562 259.328125 Z M 296.988281 175.089844 " fill-opacity="1" fill-rule="nonzero"/></g><path fill="#ffffff" d="M 286.117188 234.90625 C 285.09375 235.878906 283.632812 236.171875 282.363281 235.683594 C 282.023438 235.539062 250.382812 224.035156 225.132812 237.246094 C 217.964844 241 212.164062 244.703125 207.53125 248.117188 C 239.609375 238.023438 287.191406 242.703125 303.816406 244.800781 L 277.488281 164.511719 L 267.542969 164.511719 L 287.140625 231.199219 C 287.53125 232.515625 287.140625 233.980469 286.117188 234.90625 Z M 286.117188 234.90625 " fill-opacity="1" fill-rule="nonzero"/><path fill="#ffffff" d="M 119.539062 149.25 L 96.773438 226.761719 C 131.492188 217.058594 160.785156 229.703125 183.839844 252.601562 C 183.839844 252.601562 183.839844 169.824219 183.839844 169.824219 C 179.746094 164.949219 158.832031 143.109375 119.539062 149.25 Z M 119.539062 149.25 " fill-opacity="1" fill-rule="nonzero"/><g clip-path="url(#fd070debe4)"><path fill="#ffffff" d="M 66.449219 252.84375 C 63.824219 253.261719 61.558594 250.558594 62.402344 248.066406 C 62.402344 248.066406 86.339844 175.089844 86.339844 175.089844 C 86.339844 175.089844 78.003906 175.089844 78.003906 175.089844 L 51.144531 259.328125 L 175.75 259.328125 C 142.160156 241.535156 67.277344 252.699219 66.449219 252.84375 Z M 66.449219 252.84375 " fill-opacity="1" fill-rule="nonzero"/></g><path fill="#ffffff" d="M 167.460938 248.117188 C 162.828125 244.703125 157.027344 241 149.863281 237.246094 C 124.609375 224.082031 92.96875 235.539062 92.628906 235.683594 C 89.980469 236.800781 86.921875 233.953125 87.851562 231.199219 C 87.851562 231.199219 107.449219 164.511719 107.449219 164.511719 L 97.503906 164.511719 L 71.179688 244.800781 C 87.800781 242.703125 135.382812 238.023438 167.460938 248.117188 Z M 167.460938 248.117188 " fill-opacity="1" fill-rule="nonzero"/><g transform="matrix(1, 0, 0, 1, 133, 24)"><g clip-path="url(#7be2b84d84)"><g fill="#159d9d" fill-opacity="1"><g transform="translate(2.403604, 187.543039)"><g><path d="M 6.75 -122.128906 L 55.558594 -122.128906 C 69.621094 -122.128906 80.398438 -119.230469 87.898438 -113.433594 C 95.949219 -107.207031 99.972656 -98.128906 99.972656 -86.191406 C 99.972656 -79.480469 98.261719 -73.523438 94.835938 -68.3125 C 91.515625 -63.253906 86.660156 -59.058594 80.273438 -55.726562 L 77.019531 -61.960938 L 78.75 -68.777344 C 87.027344 -66.671875 93.582031 -62.734375 98.417969 -56.957031 C 103.378906 -51.035156 105.859375 -43.53125 105.859375 -34.441406 C 105.859375 -20.957031 101.175781 -10.570312 91.808594 -3.277344 C 82.980469 3.59375 70.550781 7.03125 54.519531 7.03125 L -1.148438 7.03125 L -1.148438 -20.441406 L 10.960938 -21.539062 C 11.105469 -21.554688 11.195312 -21.570312 11.234375 -21.585938 C 10.984375 -21.488281 10.734375 -21.316406 10.476562 -21.066406 C 10.128906 -20.730469 9.875 -20.34375 9.710938 -19.910156 C 9.625 -19.679688 9.582031 -19.507812 9.582031 -19.382812 L 9.582031 -99.863281 L 16.617188 -99.863281 L 16.246094 -92.84375 L -0.28125 -93.714844 L -0.28125 -122.128906 Z M 6.75 -108.0625 L 6.75 -115.097656 L 13.78125 -115.097656 L 13.78125 -100.382812 L 6.75 -100.382812 L 7.121094 -107.40625 L 23.648438 -106.535156 L 23.648438 -19.382812 C 23.648438 -15.953125 22.511719 -13.140625 20.246094 -10.949219 C 18.242188 -9.019531 15.574219 -7.882812 12.234375 -7.535156 L 6.519531 -7.015625 L 5.882812 -14.019531 L 12.917969 -14.019531 L 12.917969 0 L 5.882812 0 L 5.882812 -7.03125 L 54.519531 -7.03125 C 67.332031 -7.03125 76.882812 -9.480469 83.171875 -14.375 C 88.921875 -18.851562 91.796875 -25.542969 91.796875 -34.441406 C 91.796875 -40.125 90.410156 -44.617188 87.636719 -47.925781 C 84.746094 -51.382812 80.628906 -53.789062 75.285156 -55.148438 L 57.449219 -59.683594 L 73.765625 -68.195312 C 77.992188 -70.402344 81.101562 -73.015625 83.085938 -76.035156 C 84.96875 -78.902344 85.910156 -82.285156 85.910156 -86.191406 C 85.910156 -93.527344 83.707031 -98.898438 79.296875 -102.308594 C 74.332031 -106.144531 66.417969 -108.0625 55.558594 -108.0625 Z M 44.761719 -52.441406 L 44.761719 -16.269531 L 37.730469 -16.269531 L 37.730469 -23.300781 L 54 -23.300781 C 59.832031 -23.300781 63.976562 -24.300781 66.429688 -26.304688 C 68.457031 -27.957031 69.46875 -30.726562 69.46875 -34.617188 C 69.46875 -38.160156 68.457031 -40.753906 66.429688 -42.40625 C 63.976562 -44.410156 60.121094 -45.410156 54.867188 -45.410156 L 37.730469 -45.410156 L 37.730469 -52.441406 Z M 30.699219 -59.472656 L 54.867188 -59.472656 C 63.457031 -59.472656 70.273438 -57.417969 75.316406 -53.304688 C 80.792969 -48.839844 83.53125 -42.609375 83.53125 -34.617188 C 83.53125 -26.273438 80.792969 -19.871094 75.316406 -15.40625 C 70.273438 -11.292969 63.167969 -9.238281 54 -9.238281 L 30.699219 -9.238281 Z M 44.761719 -99.171875 L 44.761719 -67.847656 L 37.730469 -67.847656 L 37.730469 -74.878906 L 50.539062 -74.878906 C 55.945312 -74.878906 59.691406 -75.777344 61.777344 -77.578125 C 63.558594 -79.117188 64.449219 -81.472656 64.449219 -84.632812 C 64.449219 -87.386719 63.820312 -89.164062 62.566406 -89.972656 C 60.324219 -91.417969 56.71875 -92.140625 51.75 -92.140625 L 37.730469 -92.140625 L 37.730469 -99.171875 Z M 30.699219 -106.203125 L 51.75 -106.203125 C 59.476562 -106.203125 65.617188 -104.734375 70.183594 -101.796875 C 73.042969 -99.953125 75.1875 -97.464844 76.605469 -94.332031 C 77.878906 -91.535156 78.511719 -88.300781 78.511719 -84.632812 C 78.511719 -77.183594 76 -71.285156 70.972656 -66.941406 C 66.25 -62.855469 59.4375 -60.816406 50.539062 -60.816406 L 30.699219 -60.816406 Z M 30.699219 -106.203125 "/></g></g></g><g fill="#ffffff" fill-opacity="1"><g transform="translate(2.403604, 187.543039)"><g><path d="M 6.75 -115.09375 L 55.5625 -115.09375 C 80.476562 -115.09375 92.9375 -105.457031 92.9375 -86.1875 C 92.9375 -75.570312 87.628906 -67.5 77.015625 -61.96875 C 83.828125 -60.226562 89.164062 -57.050781 93.03125 -52.4375 C 96.894531 -47.820312 98.828125 -41.820312 98.828125 -34.4375 C 98.828125 -23.25 95.046875 -14.710938 87.484375 -8.828125 C 79.929688 -2.941406 68.941406 0 54.515625 0 L 5.890625 0 L 5.890625 -14.015625 L 11.59375 -14.53125 C 14.9375 -14.882812 16.609375 -16.503906 16.609375 -19.390625 L 16.609375 -99.859375 L 6.75 -100.390625 Z M 37.734375 -52.4375 L 37.734375 -16.265625 L 54 -16.265625 C 69 -16.265625 76.5 -22.378906 76.5 -34.609375 C 76.5 -40.378906 74.625 -44.789062 70.875 -47.84375 C 67.125 -50.90625 61.785156 -52.4375 54.859375 -52.4375 Z M 37.734375 -99.171875 L 37.734375 -67.84375 L 50.53125 -67.84375 C 57.6875 -67.84375 62.96875 -69.3125 66.375 -72.25 C 69.78125 -75.195312 71.484375 -79.320312 71.484375 -84.625 C 71.484375 -89.9375 69.78125 -93.6875 66.375 -95.875 C 62.96875 -98.070312 58.09375 -99.171875 51.75 -99.171875 Z M 37.734375 -99.171875 "/></g></g></g></g></g><g clip-path="url(#8c7b756e54)"><g transform="matrix(1, 0, 0, 1, 183, 239)"><g clip-path="url(#c4e416dc53)"><g clip-path="url(#9d0e7b48a2)"><path fill="#159d9d" d="M 0.8125 0.128906 L 8.1875 0.128906 L 8.1875 30.3125 L 0.8125 30.3125 Z M 0.8125 0.128906 " fill-opacity="1" fill-rule="nonzero"/></g></g></g></g></svg>